<svg width="500" height="500" viewBox="0 0 500 500" fill="none" xmlns="http://www.w3.org/2000/svg">
<path d="M64.24 261.36H42.82V156.215H64.495V167.52C65.175 165.877 66.6483 164.007 68.915 161.91C71.1817 159.813 74.1283 158 77.755 156.47C81.4383 154.94 85.6317 154.175 90.335 154.175C96.965 154.175 102.745 155.79 107.675 159.02C112.605 162.25 116.402 166.67 119.065 172.28C121.785 177.833 123.145 184.123 123.145 191.15C123.145 198.177 121.728 204.495 118.895 210.105C116.062 215.658 112.123 220.05 107.08 223.28C102.037 226.453 96.1717 228.04 89.485 228.04C84.4417 228.04 80.1067 227.133 76.48 225.32C72.8533 223.507 70.02 221.467 67.98 219.2C65.94 216.933 64.6933 215.148 64.24 213.845V261.36ZM101.98 191.15C101.98 187.24 101.13 183.812 99.43 180.865C97.7867 177.862 95.5767 175.538 92.8 173.895C90.0233 172.195 86.935 171.345 83.535 171.345C79.965 171.345 76.735 172.195 73.845 173.895C70.955 175.595 68.66 177.947 66.96 180.95C65.3167 183.897 64.495 187.297 64.495 191.15C64.495 195.003 65.3167 198.432 66.96 201.435C68.66 204.382 70.955 206.705 73.845 208.405C76.735 210.048 79.965 210.87 83.535 210.87C86.935 210.87 90.0233 210.048 92.8 208.405C95.5767 206.762 97.7867 204.467 99.43 201.52C101.13 198.517 101.98 195.06 101.98 191.15ZM129.807 226V156.215H151.312V226H129.807ZM140.857 138.195C137.287 138.195 134.255 136.948 131.762 134.455C129.325 131.962 128.107 128.987 128.107 125.53C128.107 122.073 129.354 119.07 131.847 116.52C134.34 113.97 137.344 112.695 140.857 112.695C143.18 112.695 145.305 113.29 147.232 114.48C149.159 115.613 150.717 117.143 151.907 119.07C153.097 120.997 153.692 123.15 153.692 125.53C153.692 128.987 152.417 131.962 149.867 134.455C147.374 136.948 144.37 138.195 140.857 138.195ZM198.406 210.87C202.089 210.87 205.093 210.247 207.416 209C209.739 207.753 211.269 206.818 212.006 206.195L222.036 221.07C221.243 221.693 219.769 222.572 217.616 223.705C215.463 224.838 212.714 225.83 209.371 226.68C206.084 227.587 202.316 228.04 198.066 228.04C190.699 228.04 184.098 226.567 178.261 223.62C172.424 220.617 167.806 216.367 164.406 210.87C161.063 205.317 159.391 198.715 159.391 191.065C159.391 183.358 161.063 176.757 164.406 171.26C167.806 165.763 172.424 161.542 178.261 158.595C184.098 155.648 190.699 154.175 198.066 154.175C202.259 154.175 205.971 154.628 209.201 155.535C212.488 156.442 215.236 157.49 217.446 158.68C219.656 159.813 221.186 160.748 222.036 161.485L211.751 176.445C211.354 175.992 210.589 175.368 209.456 174.575C208.323 173.782 206.821 173.045 204.951 172.365C203.138 171.685 200.956 171.345 198.406 171.345C195.289 171.345 192.314 172.167 189.481 173.81C186.704 175.453 184.438 177.748 182.681 180.695C180.924 183.642 180.046 187.098 180.046 191.065C180.046 195.032 180.924 198.517 182.681 201.52C184.438 204.467 186.704 206.762 189.481 208.405C192.314 210.048 195.289 210.87 198.406 210.87ZM271.4 156.215H296.22L262.135 189.535L299.28 226H273.865L244.88 196.845V226H223.29V109.04H244.88V181.8L271.4 156.215Z" fill="#24272B"/>
<path d="M168.24 390.36H146.82V285.215H168.495V296.52C169.175 294.877 170.648 293.007 172.915 290.91C175.182 288.813 178.128 287 181.755 285.47C185.438 283.94 189.632 283.175 194.335 283.175C200.965 283.175 206.745 284.79 211.675 288.02C216.605 291.25 220.402 295.67 223.065 301.28C225.785 306.833 227.145 313.123 227.145 320.15C227.145 327.177 225.728 333.495 222.895 339.105C220.062 344.658 216.123 349.05 211.08 352.28C206.037 355.453 200.172 357.04 193.485 357.04C188.442 357.04 184.107 356.133 180.48 354.32C176.853 352.507 174.02 350.467 171.98 348.2C169.94 345.933 168.693 344.148 168.24 342.845V390.36ZM205.98 320.15C205.98 316.24 205.13 312.812 203.43 309.865C201.787 306.862 199.577 304.538 196.8 302.895C194.023 301.195 190.935 300.345 187.535 300.345C183.965 300.345 180.735 301.195 177.845 302.895C174.955 304.595 172.66 306.947 170.96 309.95C169.317 312.897 168.495 316.297 168.495 320.15C168.495 324.003 169.317 327.432 170.96 330.435C172.66 333.382 174.955 335.705 177.845 337.405C180.735 339.048 183.965 339.87 187.535 339.87C190.935 339.87 194.023 339.048 196.8 337.405C199.577 335.762 201.787 333.467 203.43 330.52C205.13 327.517 205.98 324.06 205.98 320.15ZM287.527 355V342.845C287.017 344.092 285.714 345.848 283.617 348.115C281.52 350.382 278.687 352.45 275.117 354.32C271.604 356.133 267.467 357.04 262.707 357.04C256.02 357.04 250.099 355.453 244.942 352.28C239.785 349.05 235.734 344.658 232.787 339.105C229.897 333.495 228.452 327.177 228.452 320.15C228.452 313.123 229.897 306.833 232.787 301.28C235.734 295.67 239.785 291.25 244.942 288.02C250.099 284.79 256.02 283.175 262.707 283.175C267.354 283.175 271.377 283.968 274.777 285.555C278.234 287.085 281.01 288.898 283.107 290.995C285.26 293.035 286.649 294.877 287.272 296.52V285.215H308.692V355H287.527ZM249.617 320.15C249.617 324.06 250.495 327.517 252.252 330.52C254.009 333.467 256.332 335.762 259.222 337.405C262.112 339.048 265.257 339.87 268.657 339.87C272.227 339.87 275.4 339.048 278.177 337.405C280.954 335.705 283.135 333.382 284.722 330.435C286.365 327.432 287.187 324.003 287.187 320.15C287.187 316.297 286.365 312.897 284.722 309.95C283.135 306.947 280.954 304.595 278.177 302.895C275.4 301.195 272.227 300.345 268.657 300.345C265.257 300.345 262.112 301.195 259.222 302.895C256.332 304.538 254.009 306.862 252.252 309.865C250.495 312.812 249.617 316.24 249.617 320.15ZM353.871 339.87C357.554 339.87 360.557 339.247 362.881 338C365.204 336.753 366.734 335.818 367.471 335.195L377.501 350.07C376.707 350.693 375.234 351.572 373.081 352.705C370.927 353.838 368.179 354.83 364.836 355.68C361.549 356.587 357.781 357.04 353.531 357.04C346.164 357.04 339.562 355.567 333.726 352.62C327.889 349.617 323.271 345.367 319.871 339.87C316.527 334.317 314.856 327.715 314.856 320.065C314.856 312.358 316.527 305.757 319.871 300.26C323.271 294.763 327.889 290.542 333.726 287.595C339.562 284.648 346.164 283.175 353.531 283.175C357.724 283.175 361.436 283.628 364.666 284.535C367.952 285.442 370.701 286.49 372.911 287.68C375.121 288.813 376.651 289.748 377.501 290.485L367.216 305.445C366.819 304.992 366.054 304.368 364.921 303.575C363.787 302.782 362.286 302.045 360.416 301.365C358.602 300.685 356.421 300.345 353.871 300.345C350.754 300.345 347.779 301.167 344.946 302.81C342.169 304.453 339.902 306.748 338.146 309.695C336.389 312.642 335.511 316.098 335.511 320.065C335.511 324.032 336.389 327.517 338.146 330.52C339.902 333.467 342.169 335.762 344.946 337.405C347.779 339.048 350.754 339.87 353.871 339.87ZM426.864 285.215H451.684L417.599 318.535L454.744 355H429.329L400.344 325.845V355H378.754V238.04H400.344V310.8L426.864 285.215Z" fill="#24272B"/>
<path d="M279.022 225.5C279.08 223.345 279.5 220 279.5 220C280.5 215.5 282.407 209.661 285.954 206.196C290.5 200.5 303.855 195.382 315.11 192.275C322.532 190.216 328.934 188.186 329.336 187.755C329.748 187.333 327.63 182.373 324.65 176.745C306.12 141.804 321.14 116 360.003 116C371.189 116 377.512 117.804 396.042 126.304C415.856 135.382 422.993 134.52 426.13 122.637C428.503 113.716 431.63 114.422 432.503 124.088C435.218 154.373 414.061 176.637 388.169 170.745C378.179 168.48 372.581 164.48 361.179 151.48C344.561 132.529 330.522 129.755 324.13 144.137C317.071 160.01 328.355 173.284 357.355 183.225C388.365 193.853 395.14 198.892 413.512 225.059C426.336 243.333 429.375 246.392 434.659 246.392C436.532 246.392 440.11 245.402 442.61 244.186C447.12 242 447.169 242 448.179 243.931C451.042 249.441 423.767 266.049 408.748 267.931L400.659 268.941L396.679 267.716C394.493 267.039 390.473 265.284 387.748 263.814C383.12 261.324 382.601 261.245 377.13 264.039C324.65 276.422 277.836 256.578 279.022 228C279.022 228 278.996 226.476 279.022 225.5ZM331.885 198.353C316.552 210.676 327.934 245.755 350.414 255.5C355.542 257.726 357.865 258.137 364.63 258.059C369.081 258.01 373.738 257.676 374.983 257.324C377.208 256.696 377.169 256.598 373.022 251.245C370.699 248.255 361.346 234.441 352.238 220.559C335.679 195.304 335.679 195.304 331.885 198.353Z" fill="#CC5147"/>
</svg>
